<svg xmlns="http://www.w3.org/2000/svg" height="24" width="24">
<path d="M16.262 3a5.69 5.69 0 014.063 1.713A5.873 5.873 0 0122 8.828a5.873 5.873 0 01-1.674 4.114L12 21.428l-8.327-8.486c-2.231-2.275-2.231-5.953 0-8.228a5.676 5.676 0 018.128 0l.199.202.199-.203a5.7 5.7 0 013.795-1.707zm-.762 8.053l-3.506 4.605-2.979-3.972L8.067 13H6.532l5.467 5.572 5.469-5.573-.67.001zM16.262 5c-.986 0-1.935.4-2.636 1.114L12 7.774l-1.627-1.66a3.676 3.676 0 00-5.272 0C3.799 7.442 3.651 9.506 4.659 11h2.384l1.942-2.687 3.021 4.028 3.604-4.73L17.868 11h1.472c.427-.634.66-1.39.66-2.172 0-1.02-.397-1.996-1.102-2.714A3.693 3.693 0 0016.262 5z" fill="#100f0e" fill-rule="evenodd"/>
</svg>