<svg width="32" height="32" viewBox="0 0 32 32" fill="none" xmlns="http://www.w3.org/2000/svg">
<path d="M28.0548 5.49406L25.074 8.47489C26.3306 10.316 26.126 12.8292 24.4895 14.4658L22.21 16.7452L15.547 10.0822L17.8265 7.80274C19.463 6.16621 21.9763 5.99087 23.8174 7.24749L26.8274 4.23744C23.9635 1.60731 20.1644 0 15.9854 0C7.15982 0 0 7.15982 0 15.9854C0 20.1644 1.60731 23.9635 4.23744 26.8274L8.21187 22.853C6.95525 21.0119 7.15982 18.4986 8.79635 16.8621L11.0758 14.5826L12.7123 16.2192L14.5826 14.3489L15.284 15.0502L13.4137 16.9205L15.4301 18.937L17.3005 17.0667L18.0018 17.768L16.1315 19.6384L17.768 21.2749L15.4886 23.5543C13.8521 25.1909 11.3388 25.3662 9.49772 24.1096L5.55251 28.0548C8.35799 30.4804 12.011 31.9708 16.0146 31.9708C24.8402 31.9708 32 24.811 32 15.9854C31.9416 11.9525 30.4804 8.29954 28.0548 5.49406Z" fill="#939699"/>
</svg>