<svg width="32" height="32" viewBox="0 0 32 32" fill="none" xmlns="http://www.w3.org/2000/svg">
<path d="M32 8.48466C31.9393 3.77655 24.7742 0 16 0C7.22581 0 0.0607211 3.80173 0 8.45948V8.48466C0 8.50983 0 8.50984 0 8.53501C0 8.56019 0 8.56019 0 8.56019L5.40417 30.5901C5.40417 30.5901 5.64706 31.3454 10.4137 31.7734C13.1157 32 15.8786 32 16 32C16.1214 32 18.8842 32 21.5863 31.7734C26.3529 31.3454 26.5958 30.6153 26.5958 30.5901L32 8.56019C32 8.56019 32 8.56019 32 8.53501C32 8.50984 32 8.48466 32 8.48466ZM10.0797 24.749C9.19924 24.749 8.50095 24.1699 8.50095 23.4398C8.50095 22.7097 9.19924 22.1306 10.0797 22.1306C10.9602 22.1306 11.6584 22.7097 11.6584 23.4398C11.6584 24.1699 10.9298 24.749 10.0797 24.749ZM10.6262 19.0338L12.4478 16.0126L14.2694 19.0338H10.6262ZM13.7533 20.9976L15.6357 20.3179L17.518 20.9976V23.2132L15.6357 23.893L13.7533 23.2132V20.9976ZM16.2125 28.0724C15.3321 28.0724 14.6338 27.4933 14.6338 26.7632C14.6338 26.033 15.3321 25.454 16.2125 25.454C17.093 25.454 17.7913 26.033 17.7913 26.7632C17.7913 27.4681 17.093 28.0724 16.2125 28.0724ZM17.4573 17.5232C17.4573 16.5917 18.3681 15.8363 19.4915 15.8363C20.6148 15.8363 21.5256 16.5917 21.5256 17.5232C21.5256 18.4548 20.6148 19.2101 19.4915 19.2101C18.3378 19.1849 17.4573 18.4548 17.4573 17.5232ZM20.3112 24.1448L21.9203 21.476L23.5294 24.1448H20.3112ZM30.1176 9.74351C29.5712 10.5744 24.592 11.9591 16 11.9591C7.43833 11.9591 2.42884 10.5744 1.91271 9.74351V9.71833C2.42884 8.88749 7.40797 7.50275 16.0304 7.50275C24.6224 7.52793 29.6015 8.91267 30.1176 9.74351ZM25.0474 5.69001C20.7362 5.06058 16.2125 5.06058 16 5.06058C15.8178 5.06058 11.2638 5.06058 6.95256 5.69001C4.15939 6.09284 2.48956 6.62156 1.48766 7.09992C2.82353 3.62549 8.80455 1.00708 16 1.00708C23.1954 1.00708 29.1765 3.62549 30.5123 7.09992C29.5104 6.59638 27.8406 6.09284 25.0474 5.69001Z" fill="white"/>
</svg>
