<svg width="32" height="23" viewBox="0 0 32 23" fill="none" xmlns="http://www.w3.org/2000/svg">
<path d="M11.1343 11.9193C11.1343 12.3119 11.3586 12.7046 11.8074 12.7046C12.0598 12.7046 12.3402 12.5083 12.4805 12.1437V11.4986C12.2841 11.2462 12.0317 11.134 11.8074 11.134C11.3306 11.106 11.1343 11.5267 11.1343 11.9193Z" fill="white"/>
<path d="M20.6135 5.94568H0V8.07714L9.73182 17.9492C10.2927 18.5381 11.05 18.8466 11.8633 18.8466C12.6766 18.8466 13.4338 18.5381 13.9947 17.9492L22.2962 9.53551C21.3988 8.58196 20.7818 7.34796 20.6135 5.94568ZM13.5741 13.5741C13.2375 13.5741 12.8449 13.4338 12.6205 12.929C12.4242 13.2375 12.0316 13.4338 11.6389 13.4338C10.8536 13.4338 10.3208 12.7608 10.3208 11.9474C10.3208 11.2182 10.7975 10.433 11.6389 10.433C11.9194 10.433 12.2559 10.5732 12.4522 10.7695V10.6293C12.4522 10.5452 12.5083 10.4891 12.5925 10.4891H13.1253C13.2095 10.4891 13.2656 10.5452 13.2656 10.6293V11.8633C13.2656 12.5644 13.3777 12.7888 13.6021 12.7888C13.9667 12.7888 14.135 12.2279 14.135 11.7792C14.135 10.433 13.2936 9.61965 11.8633 9.61965C10.6293 9.61965 9.64768 10.6012 9.64768 11.8913C9.64768 13.1534 10.6012 14.163 11.8352 14.163C12.1437 14.163 12.4522 14.1069 12.7607 13.9667C12.8168 13.9387 12.901 13.9667 12.929 14.0228L13.1814 14.4996C13.2095 14.5557 13.1814 14.6398 13.1253 14.6679C12.7046 14.8642 12.2559 14.9483 11.8352 14.9483C10.1245 14.9483 8.75022 13.546 8.75022 11.8633C8.75022 10.1245 10.1525 8.77828 11.8633 8.77828C13.6582 8.77828 15.0324 9.9562 15.0324 11.695C15.0044 12.6766 14.5557 13.5741 13.5741 13.5741Z" fill="white"/>
<path d="M23.1374 0.252441H5.60889V1.79495H21.6229C22.0436 1.17795 22.5484 0.673125 23.1374 0.252441Z" fill="white"/>
<path d="M27.9053 11.3303V17.1638H29.4478V10.7975C28.971 11.0499 28.4662 11.2182 27.9053 11.3303Z" fill="white"/>
<path d="M25.0449 11.1902V20.0245H26.5874V11.4426C26.0546 11.4146 25.5497 11.3304 25.0449 11.1902Z" fill="white"/>
<path d="M20.9503 3.11304H2.7207V4.65554H20.5857C20.6418 4.12268 20.7821 3.58981 20.9503 3.11304Z" fill="white"/>
<path d="M23.0254 10.1525L14.6678 18.6223C13.9106 19.3795 12.929 19.8002 11.8633 19.8002C10.7975 19.8002 9.81595 19.3795 9.05872 18.6223L0 9.42334V22.2963H23.7546V10.6573C23.5022 10.4891 23.2498 10.3488 23.0254 10.1525Z" fill="white"/>
<path d="M26.7558 0C23.8671 0 21.5112 2.35583 21.5112 5.24452C21.5112 8.13321 23.8671 10.489 26.7558 10.489C29.6445 10.489 32.0003 8.13321 32.0003 5.24452C32.0003 2.35583 29.6445 0 26.7558 0ZM29.1116 5.83348L29.7566 6.11393C29.8408 6.14198 29.8688 6.22612 29.8408 6.31025L29.6725 6.73094C29.6444 6.81507 29.5603 6.84312 29.4762 6.81507L28.8311 6.53462C28.6348 6.87116 28.3544 7.12357 28.0459 7.31989L28.3263 7.96494C28.3544 8.04908 28.3263 8.13321 28.2422 8.16126L27.8215 8.32953C27.7373 8.35758 27.6532 8.32953 27.6252 8.2454L27.3447 7.60035C27.1484 7.65644 26.9801 7.65644 26.7838 7.65644C26.5875 7.65644 26.4192 7.62839 26.2229 7.60035L25.9424 8.2454C25.9144 8.32953 25.8303 8.35758 25.7461 8.32953L25.3254 8.16126C25.2413 8.13321 25.2132 8.04908 25.2413 7.96494L25.5217 7.31989C25.2132 7.12357 24.9328 6.87116 24.7365 6.53462L24.0914 6.81507C24.0073 6.84312 23.9231 6.81507 23.8951 6.73094L23.7268 6.31025C23.6988 6.22612 23.7268 6.14198 23.811 6.11393L24.456 5.83348C24.3719 5.46889 24.3719 5.07625 24.456 4.71165L23.811 4.45924C23.7268 4.4312 23.6988 4.34706 23.7268 4.26293L23.8951 3.84224C23.9231 3.75811 24.0073 3.73006 24.0914 3.7581L24.7365 4.01052C24.9328 3.70201 25.2132 3.42156 25.5217 3.22524L25.2693 2.58019C25.2413 2.49605 25.2693 2.41192 25.3535 2.38387L25.7742 2.2156C25.8583 2.18755 25.9424 2.2156 25.9705 2.29974L26.2229 2.94478C26.5875 2.86065 26.9801 2.86065 27.3447 2.94478L27.5971 2.29974C27.6252 2.2156 27.7093 2.18755 27.7934 2.2156L28.2141 2.38387C28.2983 2.41192 28.3263 2.49605 28.2983 2.58019L28.0178 3.22524C28.3263 3.42156 28.6068 3.70201 28.8031 4.01052L29.4481 3.73006C29.5323 3.70201 29.6164 3.73006 29.6444 3.8142L29.8127 4.23488C29.8408 4.31902 29.8127 4.40315 29.7286 4.4312L29.0835 4.71165C29.1957 5.07625 29.1957 5.46889 29.1116 5.83348ZM28.2141 4.65556C28.5507 5.46889 28.158 6.39439 27.3447 6.73094C26.5314 7.06748 25.6059 6.67484 25.2693 5.86152C24.9328 5.0482 25.3254 4.1227 26.1388 3.78615C26.3351 3.70202 26.5314 3.67397 26.7558 3.67397C27.3728 3.67397 27.9617 4.03856 28.2141 4.65556Z" fill="white"/>
</svg>
