<svg width="30" height="32" viewBox="0 0 30 32" fill="none" xmlns="http://www.w3.org/2000/svg">
<path d="M22.6934 0.447161C18.8646 -4.3311e-07 14.8961 0 14.7284 0C14.5607 0 10.5921 -4.3311e-07 6.76332 0.447161C0.083842 1.22969 0 2.62707 0 2.65502V29.345C0 29.3729 0.083842 30.7424 6.76332 31.5528C10.5921 32 14.5607 32 14.7284 32C14.8961 32 18.8646 32 22.6934 31.5528C29.3729 30.7703 29.4568 29.3729 29.4568 29.345V2.65502C29.4847 2.62707 29.4009 1.22969 22.6934 0.447161ZM21.883 25.7397C21.883 25.7956 21.883 25.8236 21.883 25.8795C16.2655 25.8795 10.648 25.8795 5.00262 25.8795C5.00262 21.3799 5.00262 18.5013 5.00262 14.0017C5.05851 14.0017 5.08646 14.0017 5.14236 14.0017C6.90305 14.0017 8.66376 14.0017 10.4245 14.0017C10.5083 14.0017 10.5642 14.0297 10.6201 14.1135C10.8437 14.5328 11.0952 14.9799 11.3467 15.3991C11.4026 15.483 11.4585 15.5109 11.5703 15.5109C14.4769 15.5109 17.4114 15.5109 20.3179 15.5109C21.1284 15.5109 21.9109 16.1258 21.9109 17.1039C21.883 20.5135 21.883 22.3022 21.883 25.7397ZM24.4541 23.0288C24.007 23.0288 23.5878 23.0288 23.1686 23.0288C23.1686 22.9729 23.1686 22.917 23.1686 22.8611C23.1686 19.8987 23.1686 18.5852 23.1686 15.6507C23.1686 14.8681 22.5817 14.0576 21.5755 14.0576C18.669 14.0576 15.7624 14.0576 12.8279 14.0576C12.7162 14.0576 12.6323 14.0297 12.5764 13.9179C12.3528 13.4987 12.1013 13.0795 11.8777 12.6603C11.8218 12.5764 11.7939 12.5485 11.71 12.5485C10.3686 12.5485 9.05502 12.5485 7.74148 12.5485C7.68559 12.5485 7.65764 12.5485 7.60175 12.5485C7.60175 12.0734 7.60175 11.5983 7.60175 11.1231C7.65764 11.1231 7.68559 11.1231 7.74148 11.1231C9.50218 11.1231 11.2629 11.1231 13.0236 11.1231C13.1074 11.1231 13.1633 11.1511 13.2192 11.2349C13.4428 11.6541 13.6943 12.0734 13.9179 12.4926C13.9738 12.5764 14.0297 12.6323 14.1415 12.6323C17.048 12.6323 19.9825 12.6323 22.8891 12.6323C23.6996 12.6323 24.3144 13.1633 24.4541 13.9459C24.4541 14.0297 24.4541 14.0856 24.4541 14.1694C24.4541 17.607 24.4541 19.4236 24.4541 22.8891C24.4541 22.917 24.4541 22.9729 24.4541 23.0288ZM28.2271 4.83493C27.724 5.61747 22.945 6.931 14.7284 6.931C6.51179 6.931 1.7607 5.61747 1.22969 4.83493C1.7048 4.0524 6.48384 2.71092 14.7284 2.71092C22.9729 2.71092 27.752 4.0524 28.2271 4.83493Z" fill="white"/>
</svg>
