<?xml version="1.0" encoding="utf-8"?>
<!-- Generator: Adobe Illustrator 23.0.1, SVG Export Plug-In . SVG Version: 6.00 Build 0)  -->
<svg version="1.1" id="Layer_1" xmlns="http://www.w3.org/2000/svg" xmlns:xlink="http://www.w3.org/1999/xlink" x="0px" y="0px"
	 viewBox="0 0 64 64" style="enable-background:new 0 0 64 64;" xml:space="preserve">
<style type="text/css">
	.st0{fill:#939699;}
</style>
<g>
	<g>
		<path class="st0" d="M10.9,64.1H6.2c-3.4,0-6.2-2.8-6.2-6.2v-4.7C0,49.8,2.8,47,6.2,47h4.7c3.4,0,6.2,2.8,6.2,6.2v4.7
			C17.1,61.3,14.3,64.1,10.9,64.1z"/>
	</g>
	<path class="st0" d="M57.8-0.1h-2.3h-2.3H10.9H8.5H6.2C2.8-0.1,0,2.7,0,6.1v4.7C0,14.2,2.8,17,6.2,17h2.3h2.3H53h2.3h2.3c3.4,0,6.2-2.8,6.2-6.2
		V6.1C64,2.7,61.2-0.1,57.8-0.1z"/>
	<path class="st0" d="M34.3,23.5H6.2c-3.4,0-6.2,2.8-6.2,6.2v4.7c0,3.4,2.8,6.2,6.2,6.2h28.2c3.4,0,6.2-2.8,6.2-6.2v-4.7
		C40.5,26.2,37.8,23.5,34.3,23.5z"/>
	<path class="st0" d="M57.8,27.6c1.2,0,2.1,0.9,2.1,2.1v4.7c0,1.2-0.9,2.1-2.1,2.1h-4.7c-1.2,0-2.1-0.9-2.1-2.1v-4.7
		c0-1.2,0.9-2.1,2.1-2.1H57.8 M57.8,23.5h-4.7c-3.4,0-6.2,2.8-6.2,6.2v4.7c0,3.4,2.8,6.2,6.2,6.2h4.7c3.4,0,6.2-2.8,6.2-6.2v-4.7
		C64,26.2,61.2,23.5,57.8,23.5L57.8,23.5z"/>
	<path class="st0" d="M57.8,51.1c1.2,0,2.1,0.9,2.1,2.1v4.7c0,1.2-0.9,2.1-2.1,2.1h-4.7C52,60,51,59.1,51,57.9v-4.7
		c0-1.2,0.9-2.1,2.1-2.1L57.8,51.1 M57.8,47h-4.7c-3.4,0-6.2,2.8-6.2,6.2v4.7c0,3.4,2.8,6.2,6.2,6.2h4.7c3.4,0,6.2-2.8,6.2-6.2v-4.7
		C64,49.8,61.2,47,57.8,47L57.8,47z"/>
	<path class="st0" d="M34.3,51.1c1.2,0,2.1,0.9,2.1,2.1v4.7c0,1.2-0.9,2.1-2.1,2.1h-4.7c-1.2,0-2.1-0.9-2.1-2.1v-4.7
		c0-1.2,0.9-2.1,2.1-2.1H34.3 M34.3,47h-4.7c-3.4,0-6.2,2.8-6.2,6.2v4.7c0,3.4,2.8,6.2,6.2,6.2h4.7c3.4,0,6.2-2.8,6.2-6.2v-4.7
		C40.5,49.8,37.8,47,34.3,47L34.3,47z"/>
</g>
</svg>
