<svg width="32" height="32" viewBox="0 0 32 32" fill="none" xmlns="http://www.w3.org/2000/svg">
<path d="M24.1754 24.1543C24.7661 24.1543 25.2449 23.7167 25.2449 23.1768C25.2449 22.637 24.7661 22.1993 24.1754 22.1993C23.5848 22.1993 23.106 22.637 23.106 23.1768C23.106 23.7167 23.5848 24.1543 24.1754 24.1543Z" fill="#939699"/>
<path d="M30.2544 0H1.77305C0.788022 0 0 0.720256 0 1.62058V30.3794C0 31.2797 0.788022 32 1.77305 32H30.2262C31.2113 32 31.9993 31.2797 31.9993 30.3794V1.62058C32.0274 0.74598 31.2113 0 30.2544 0ZM12.7491 8.41158V8.20579V6.50804C12.7491 6.12219 13.0868 5.81351 13.5089 5.81351H18.5185C18.9407 5.81351 19.2784 6.12219 19.2784 6.50804V8.20579V8.41158V11.164C19.2784 11.5498 18.9407 11.8585 18.5185 11.8585H13.5089C13.0868 11.8585 12.7491 11.5498 12.7491 11.164V8.41158ZM12.7491 15.6399V15.4341V13.7363C12.7491 13.3505 13.0868 13.0418 13.5089 13.0418H18.5185C18.9407 13.0418 19.2784 13.3505 19.2784 13.7363V15.4341V15.6399V18.3923C19.2784 18.7781 18.9407 19.0868 18.5185 19.0868H13.5089C13.0868 19.0868 12.7491 18.7781 12.7491 18.3923V15.6399ZM5.06585 8.41158V8.20579V6.50804C5.06585 6.12219 5.40358 5.81351 5.82573 5.81351H10.8353C11.2574 5.81351 11.5952 6.12219 11.5952 6.50804V8.20579V8.41158V11.164C11.5952 11.5498 11.2574 11.8585 10.8353 11.8585H5.82573C5.40358 11.8585 5.06585 11.5498 5.06585 11.164V8.41158V8.41158ZM5.06585 15.6399V15.4341V13.7363C5.06585 13.3505 5.40358 13.0418 5.82573 13.0418H10.8353C11.2574 13.0418 11.5952 13.3505 11.5952 13.7363V15.4341V15.6399V18.3923C11.5952 18.7781 11.2574 19.0868 10.8353 19.0868H5.82573C5.40358 19.0868 5.06585 18.7781 5.06585 18.3923V15.6399V15.6399ZM26.9616 25.3119C26.9616 25.8006 26.5113 26.2122 25.9766 26.2122H6.07902C5.54429 26.2122 5.09399 25.8006 5.09399 25.3119V20.2701H26.9897V25.3119H26.9616ZM26.9616 15.4341V15.6399V18.3923C26.9616 18.7781 26.6239 19.0868 26.2017 19.0868H21.1921C20.77 19.0868 20.4323 18.7781 20.4323 18.3923V15.6399V15.4341V13.7363C20.4323 13.3505 20.77 13.0418 21.1921 13.0418H26.2017C26.6239 13.0418 26.9616 13.3505 26.9616 13.7363V15.4341ZM26.9616 8.23151V8.4373V11.1897C26.9616 11.5756 26.6239 11.8842 26.2017 11.8842H21.1921C20.77 11.8842 20.4323 11.5756 20.4323 11.1897V8.4373V8.23151V6.53376C20.4323 6.14791 20.77 5.83923 21.1921 5.83923H26.2017C26.6239 5.83923 26.9616 6.14791 26.9616 6.53376V8.23151Z" fill="#939699"/>
</svg>
