<svg width="32" height="32" viewBox="0 0 32 32" fill="none" xmlns="http://www.w3.org/2000/svg">
<path d="M30.2544 0H1.77305C0.788022 0 0 0.720835 0 1.62188V15.601H5.12214V9.44811C5.12214 8.10941 6.30417 7.0539 7.73949 7.0539H13.3964C14.8598 7.0539 16.0137 8.13516 16.0137 9.44811V14.8286L22.4023 9.21641L21.558 8.41834L25.1322 7.62027L24.1191 10.864L23.2748 10.066L16.9706 15.6267H25.0478V14.494L28.228 16.1673L25.0478 17.8407V16.708H16.9706L23.2748 22.2687L24.1191 21.4706L25.1322 24.7144L21.558 23.9163L22.4023 23.1183L16.0137 17.506V22.8866C16.0137 24.2253 14.8317 25.2808 13.3964 25.2808H7.73949C6.27603 25.2808 5.12214 24.1995 5.12214 22.8866V16.7337H0V30.3781C0 31.2792 0.788022 32 1.77305 32H30.2262C31.2113 32 31.9993 31.2792 31.9993 30.3781V1.62188C32.0274 0.74658 31.2113 0 30.2544 0Z" fill="white"/>
<path d="M6.38867 16.7337V22.8866C6.38867 23.5817 7.00783 24.1738 7.79585 24.1738H13.4527C14.2126 24.1738 14.8599 23.6074 14.8599 22.8866V9.47385C14.8599 8.77876 14.2407 8.18665 13.4527 8.18665H7.79585C7.03597 8.18665 6.38867 8.75302 6.38867 9.47385V15.6267H10.9198V14.494L14.1 16.1673L10.9198 17.8407V16.708H6.38867V16.7337Z" fill="white"/>
</svg>
