<svg width="32" height="28" viewBox="0 0 32 28" fill="none" xmlns="http://www.w3.org/2000/svg">
<path d="M25.6783 4.59951V9.52594H6.14697V4.59951C6.14697 4.25073 6.45215 3.94556 6.80092 3.94556H25.0244C25.3731 3.94556 25.6783 4.25073 25.6783 4.59951ZM23.1933 5.71123C22.6701 5.71123 22.2342 6.14719 22.2342 6.67035C22.2342 7.19351 22.6701 7.62948 23.1933 7.62948C23.7165 7.62948 24.1524 7.19351 24.1524 6.67035C24.1524 6.12539 23.7165 5.71123 23.1933 5.71123Z" fill="#939699"/>
<path d="M25.6783 10.7902V16.6757H6.14697V10.7902H25.6783ZM23.1933 12.861C22.6701 12.861 22.2342 13.297 22.2342 13.8201C22.2342 14.3433 22.6701 14.7793 23.1933 14.7793C23.7165 14.7793 24.1524 14.3433 24.1524 13.8201C24.1524 13.297 23.7165 12.861 23.1933 12.861Z" fill="#939699"/>
<path d="M25.6783 17.8092V23.0626C25.6783 23.4114 25.3731 23.7166 25.0244 23.7166H6.80092C6.45215 23.7166 6.14697 23.4114 6.14697 23.0626V17.8092H25.6783ZM23.1933 19.7275C22.6701 19.7275 22.2342 20.1634 22.2342 20.6866C22.2342 21.2097 22.6701 21.6457 23.1933 21.6457C23.7165 21.6457 24.1524 21.2097 24.1524 20.6866C24.1524 20.1416 23.7165 19.7275 23.1933 19.7275Z" fill="#939699"/>
<path d="M2.83379 26.4414C2.37602 25.7657 2.13624 24.8501 2.13624 23.7166V19.3352C2.13624 18.7466 2.11444 18.158 2.04905 17.5695C1.98365 17.0027 1.87466 16.4796 1.72207 16.0218C1.56948 15.564 1.3515 15.2153 1.06812 14.9537C0.784743 14.6921 0.435967 14.5613 0 14.5613V12.97C0.435967 12.97 0.806541 12.8392 1.06812 12.5777C1.3515 12.3161 1.56948 11.9455 1.72207 11.5095C1.87466 11.0518 1.98365 10.5504 2.04905 9.96186C2.11444 9.3951 2.13624 8.80654 2.13624 8.19619V3.74932C2.13624 2.61581 2.35422 1.70028 2.83379 1.02453C3.29155 0.348777 3.94551 0 4.77384 0H6.25613V1.59128H5.66757C5.3624 1.59128 5.12262 1.67847 4.90463 1.85286C4.68665 2.02725 4.53406 2.24523 4.40327 2.55041C4.27248 2.83379 4.18529 3.16077 4.11989 3.53134C4.0545 3.90191 4.0327 4.27248 4.0327 4.68665V8.89374C4.0327 9.70028 3.9455 10.4196 3.77112 11.0082C3.59673 11.5967 3.37875 12.0763 3.13897 12.4687C2.89918 12.861 2.6594 13.1444 2.44142 13.3406C2.20163 13.5368 2.04905 13.6676 1.94006 13.733V13.7984C2.04905 13.8638 2.20163 13.9946 2.44142 14.1907C2.6594 14.3869 2.89918 14.6921 3.13897 15.0627C3.37875 15.455 3.59673 15.9346 3.77112 16.5232C3.9455 17.1117 4.0327 17.8093 4.0327 18.6376V22.8229C4.0327 23.2153 4.0545 23.6076 4.11989 23.9782C4.18529 24.3488 4.27248 24.6757 4.40327 24.9591C4.53406 25.2425 4.70845 25.4605 4.90463 25.6349C5.12262 25.8093 5.3624 25.8965 5.66757 25.8965H6.25613V27.4877H4.77384C3.94551 27.4659 3.29155 27.1172 2.83379 26.4414Z" fill="#939699"/>
<path d="M29.166 1.04637C29.6238 1.72212 29.8635 2.63766 29.8635 3.77117V8.19624C29.8635 8.78479 29.8853 9.37335 29.9507 9.96191C30.0161 10.5287 30.1251 11.0518 30.2777 11.5096C30.4303 11.9674 30.6483 12.3161 30.9317 12.5777C31.215 12.8393 31.5638 12.9701 31.9998 12.9701V14.5614C31.5638 14.5614 31.1932 14.6922 30.9317 14.9537C30.6483 15.2153 30.4303 15.5859 30.2777 16.0218C30.1251 16.4796 30.0161 16.981 29.9507 17.5695C29.8853 18.1581 29.8635 18.7248 29.8635 19.3352V23.7603C29.8635 24.8938 29.6238 25.8093 29.166 26.4851C28.7082 27.1608 28.0543 27.5096 27.2259 27.5096H25.7437V25.9183H26.3322C26.6374 25.9183 26.8772 25.8311 27.0952 25.6567C27.3131 25.4823 27.4657 25.2644 27.5965 24.981C27.7273 24.6976 27.8145 24.3706 27.8799 24.0001C27.9453 23.6295 27.9671 23.2371 27.9671 22.8447V18.6595C27.9671 17.8529 28.0543 17.1336 28.2287 16.545C28.4031 15.9565 28.621 15.4769 28.8608 15.0845C29.1006 14.6922 29.3404 14.4088 29.5584 14.2126C29.7763 14.0164 29.9507 13.8856 30.0597 13.8202V13.7548C29.9507 13.6894 29.7981 13.5586 29.5584 13.3625C29.3186 13.1663 29.1006 12.8611 28.8608 12.4905C28.621 12.0981 28.4031 11.6186 28.2287 11.03C28.0543 10.4415 27.9671 9.74392 27.9671 8.91558V4.7085C27.9671 4.31613 27.9453 3.92376 27.8799 3.55319C27.8145 3.18262 27.7273 2.85564 27.5965 2.57226C27.4657 2.28888 27.2913 2.0491 27.0952 1.87471C26.8772 1.70032 26.6374 1.61313 26.3322 1.61313H25.7437V0.0218506H27.2259C28.0543 0.0218506 28.7082 0.370624 29.166 1.04637Z" fill="#939699"/>
</svg>
