<svg width="32" height="19" viewBox="0 0 32 19" fill="none" xmlns="http://www.w3.org/2000/svg">
<path d="M28.5754 16.3931C28.5754 17.8135 28.1576 19 27.7064 19C27.6897 19 27.7064 19 27.7064 19H3.47599C3.05823 18.883 2.74072 17.7467 2.74072 16.3931C2.74072 15.0396 3.07494 13.92 3.47599 13.803H27.7064H27.7398C27.7733 13.803 27.7064 13.803 27.7231 13.803C28.1743 13.8197 28.5754 14.9727 28.5754 16.3931ZM3.74336 14.3043C3.45928 14.3043 3.22533 15.2401 3.22533 16.4098C3.22533 17.5796 3.45928 18.5154 3.74336 18.5154C4.02744 18.5154 4.26139 17.5796 4.26139 16.4098C4.26139 15.2401 4.02744 14.3043 3.74336 14.3043ZM20.7715 15.2735L19.6519 15.7581V17.3456L20.7715 17.8302L21.8911 17.3456V15.7581L20.7715 15.2735ZM11.8647 15.1398C11.8647 15.1565 11.8647 15.2067 11.848 15.2568C11.8313 15.3404 11.7812 15.4072 11.7478 15.4573C11.6809 15.5242 11.5807 15.5743 11.4804 15.6077C11.4135 15.6244 11.2966 15.6411 11.1128 15.6411V16.0255H11.7812V17.9639H12.3493V15.1398H11.8647ZM17.1286 15.4908C16.9782 15.2401 16.7275 15.1064 16.3766 15.1064C16.0257 15.1064 15.7583 15.2401 15.6246 15.4908C15.4742 15.7414 15.4074 16.109 15.4074 16.5602C15.4074 17.0114 15.4742 17.3791 15.6246 17.6297C15.775 17.8804 16.0257 18.0141 16.3766 18.0141C16.7275 18.0141 16.9949 17.8804 17.1286 17.6297C17.279 17.3791 17.3458 17.0281 17.3458 16.5602C17.3458 16.0923 17.2623 15.7414 17.1286 15.4908ZM26.0019 15.4908C25.8515 15.2401 25.6009 15.1064 25.25 15.1064C24.899 15.1064 24.6317 15.2401 24.498 15.4908C24.3476 15.7414 24.2807 16.109 24.2807 16.5602C24.2807 17.0114 24.3476 17.3791 24.498 17.6297C24.6484 17.8804 24.899 18.0141 25.25 18.0141C25.6009 18.0141 25.8683 17.8804 26.0019 17.6297C26.1523 17.3791 26.2192 17.0281 26.2192 16.5602C26.2192 16.0923 26.1523 15.7414 26.0019 15.4908ZM8.08813 15.1398C8.08813 15.1565 8.08813 15.2067 8.07142 15.2568C8.05471 15.3404 8.00457 15.4072 7.97115 15.4573C7.90431 15.5242 7.80405 15.5743 7.70378 15.6077C7.63694 15.6244 7.51997 15.6411 7.33615 15.6411V16.0255H8.00457V17.9639H8.57274V15.1398H8.08813Z" fill="white"/>
<path d="M16.0425 17.3122C16.0927 17.4794 16.2096 17.5629 16.3768 17.5629C16.5439 17.5629 16.6441 17.4794 16.6943 17.3122C16.7444 17.1451 16.7778 16.8945 16.7778 16.577C16.7778 16.2428 16.7444 15.9921 16.6943 15.825C16.6441 15.6579 16.5271 15.5743 16.3768 15.5743C16.2264 15.5743 16.1094 15.6579 16.0425 15.825C15.9757 15.9921 15.959 16.2428 15.959 16.577C15.959 16.8945 15.9924 17.1451 16.0425 17.3122Z" fill="white"/>
<path d="M24.9156 17.3122C24.9657 17.4794 25.0827 17.5629 25.2498 17.5629C25.4169 17.5629 25.5172 17.4794 25.5673 17.3122C25.6174 17.1451 25.6509 16.8945 25.6509 16.577C25.6509 16.2428 25.6174 15.9921 25.5673 15.825C25.5172 15.6579 25.4002 15.5743 25.2498 15.5743C25.0827 15.5743 24.9824 15.6579 24.9156 15.825C24.8487 15.9921 24.832 16.2428 24.832 16.577C24.8487 16.8945 24.8655 17.1451 24.9156 17.3122Z" fill="white"/>
<path d="M28.5754 9.49164C28.5754 10.912 28.1576 12.0985 27.7064 12.0985C27.6897 12.0985 27.7064 12.0985 27.7064 12.0985H3.47599C3.05823 11.9815 2.74072 10.8452 2.74072 9.49164C2.74072 8.13808 3.07494 7.01846 3.47599 6.90149H27.7064H27.7398C27.7733 6.90149 27.7064 6.90149 27.7231 6.90149C28.1743 6.90149 28.5754 8.07123 28.5754 9.49164ZM3.74336 7.3861C3.45928 7.3861 3.22533 8.32189 3.22533 9.49164C3.22533 10.6614 3.45928 11.5972 3.74336 11.5972C4.02744 11.5972 4.26139 10.6614 4.26139 9.49164C4.26139 8.32189 4.02744 7.3861 3.74336 7.3861ZM14.7724 10.4274L15.892 10.912L17.0116 10.4274V8.83992L15.892 8.35531L14.7724 8.83992V10.4274ZM6.83483 10.4274L7.95444 10.912L9.07406 10.4274V8.83992L7.95444 8.35531L6.83483 8.83992V10.4274ZM21.1558 8.57255C21.0055 8.32189 20.7548 8.18821 20.4039 8.18821C20.0529 8.18821 19.7856 8.32189 19.6519 8.57255C19.5015 8.82321 19.4347 9.19085 19.4347 9.64203C19.4347 10.0932 19.5015 10.4609 19.6519 10.7115C19.8023 10.9622 20.0529 11.0959 20.4039 11.0959C20.7548 11.0959 21.0222 10.9622 21.1558 10.7115C21.3062 10.4609 21.3731 10.1099 21.3731 9.64203C21.3731 9.17414 21.3062 8.82321 21.1558 8.57255ZM25.0661 8.20492C25.0661 8.22163 25.0661 8.27176 25.0494 8.32189C25.0327 8.40545 24.9826 8.47229 24.9492 8.52242C24.8823 8.58926 24.7821 8.6394 24.6818 8.67282C24.615 8.68953 24.498 8.70624 24.3142 8.70624V9.09058H24.9826V11.029H25.5507V8.20492H25.0661ZM11.8647 8.20492C11.8647 8.22163 11.8647 8.27176 11.848 8.32189C11.8313 8.40545 11.7812 8.47229 11.7478 8.52242C11.6809 8.58926 11.5807 8.6394 11.4804 8.67282C11.4135 8.68953 11.2966 8.70624 11.1128 8.70624V9.09058H11.7812V11.029H12.3493V8.20492H11.8647Z" fill="white"/>
<path d="M20.0694 10.3773C20.1195 10.5444 20.2365 10.628 20.4036 10.628C20.5707 10.628 20.671 10.5444 20.7211 10.3773C20.7712 10.2102 20.8047 9.95955 20.8047 9.64204C20.8047 9.30783 20.7712 9.05717 20.7211 8.89006C20.671 8.72296 20.554 8.6394 20.4036 8.6394C20.2532 8.6394 20.1362 8.72296 20.0694 8.89006C20.0026 9.05717 19.9858 9.30783 19.9858 9.64204C20.0026 9.95955 20.0193 10.2102 20.0694 10.3773Z" fill="white"/>
<path d="M29.5781 14.9561V17.3457L31.7004 16.1425L29.5781 14.9561Z" fill="white"/>
<path d="M0 14.9561V17.3457L2.12225 16.1425L0 14.9561Z" fill="white"/>
<path d="M29.5781 8.20496V10.5946L31.7004 9.39141L29.5781 8.20496Z" fill="white"/>
<path d="M0 8.20496V10.5946L2.12225 9.39141L0 8.20496Z" fill="white"/>
<path d="M29.5781 1.43713V3.82676L31.7004 2.6403L29.5781 1.43713Z" fill="white"/>
<path d="M0 1.43713V3.82676L2.12225 2.6403L0 1.43713Z" fill="white"/>
<path d="M7.23541 3.50927C7.28554 3.67637 7.40252 3.75993 7.56962 3.75993C7.73673 3.75993 7.83699 3.67637 7.88712 3.50927C7.93725 3.34216 7.97068 3.0915 7.97068 2.774C7.97068 2.43979 7.93725 2.18913 7.88712 2.02202C7.83699 1.85492 7.72002 1.77136 7.56962 1.77136C7.40252 1.77136 7.30225 1.85492 7.23541 2.02202C7.18528 2.18913 7.15186 2.43979 7.15186 2.774C7.16857 3.0915 7.18528 3.32545 7.23541 3.50927Z" fill="white"/>
<path d="M28.5754 2.59015C28.5754 4.01055 28.1576 5.19701 27.7064 5.19701C27.6897 5.19701 27.7064 5.19701 27.7064 5.19701H3.47599C3.05823 5.08003 2.74072 3.94371 2.74072 2.59015C2.74072 1.23658 3.07494 0.116974 3.47599 0H27.7064H27.7398C27.7733 0 27.7064 0 27.7231 0C28.1743 0 28.5754 1.16974 28.5754 2.59015ZM24.7988 1.4037L23.6792 1.8883V3.47581L24.7988 3.96042L25.9184 3.47581V1.8883L24.7988 1.4037ZM12.0653 1.45383L10.9456 1.93843V3.52594L12.0653 4.01055L13.1849 3.52594V1.93843L12.0653 1.45383ZM8.32208 1.68777C8.17168 1.43711 7.92102 1.30343 7.5701 1.30343C7.21918 1.30343 6.95181 1.43711 6.81812 1.68777C6.66772 1.93843 6.60088 2.30607 6.60088 2.75725C6.60088 3.20844 6.66772 3.57608 6.81812 3.82674C6.96852 4.0774 7.21918 4.21108 7.5701 4.21108C7.92102 4.21108 8.18839 4.0774 8.32208 3.82674C8.47247 3.57608 8.53932 3.22515 8.53932 2.75725C8.53932 2.28936 8.47247 1.93843 8.32208 1.68777ZM16.644 1.32014C16.644 1.33685 16.644 1.38698 16.6273 1.43711C16.6106 1.52067 16.5604 1.58751 16.527 1.63764C16.4602 1.70449 16.3599 1.75462 16.2596 1.78804C16.1928 1.80475 16.0758 1.82146 15.892 1.82146V2.2058H16.5604V4.14424H17.1286V1.32014H16.644ZM20.3036 1.32014C20.3036 1.33685 20.3036 1.38698 20.2869 1.43711C20.2702 1.52067 20.2201 1.58751 20.1866 1.63764C20.1198 1.70449 20.0195 1.75462 19.9193 1.78804C19.8524 1.80475 19.7354 1.82146 19.5516 1.82146V2.2058H20.2201V4.14424H20.7882V1.32014H20.3036ZM3.74336 0.484608C3.45928 0.484608 3.22533 1.4204 3.22533 2.59015C3.22533 3.75989 3.45928 4.69569 3.74336 4.69569C4.02744 4.69569 4.26139 3.75989 4.26139 2.59015C4.26139 1.43711 4.02744 0.484608 3.74336 0.484608Z" fill="white"/>
</svg>
