<svg width="32" height="32" viewBox="0 0 32 32" fill="none" xmlns="http://www.w3.org/2000/svg">
<path d="M15.8294 18.8755C15.7155 19.1032 15.5732 19.3025 15.4023 19.4449L17.1105 23.7723C17.139 23.7723 17.1675 23.7723 17.1959 23.7723C17.4522 23.7723 17.7084 23.8577 17.9362 23.9716L22.1212 19.9004C22.0643 19.7865 22.0073 19.6726 21.9789 19.5303L15.8294 18.8755Z" fill="white"/>
<path d="M14.3487 19.8434C13.7224 19.8434 13.2099 19.5017 12.9252 18.9893L10.0213 19.4732C10.0213 19.5587 9.99283 19.6156 9.96436 19.701L16.1138 24.0284L14.4626 19.8434C14.4056 19.8149 14.3772 19.8434 14.3487 19.8434Z" fill="white"/>
<path d="M13.267 17.0533L10.8186 11.7295C10.7901 11.7295 10.7901 11.7295 10.7617 11.7295L9.28125 17.822C9.53748 17.9644 9.73677 18.1921 9.85065 18.4484L12.7546 17.9644C12.84 17.6227 13.0108 17.2811 13.267 17.0533Z" fill="white"/>
<path d="M14.3485 16.6263C14.6047 16.6263 14.861 16.6833 15.0603 16.7971L20.7257 11.1032C20.6973 11.0178 20.6403 10.9324 20.6119 10.847L12.0994 10.6761C12.014 10.9324 11.8717 11.1317 11.6724 11.331L14.1208 16.6548C14.2346 16.6263 14.2916 16.6263 14.3485 16.6263Z" fill="white"/>
<path d="M21.4663 11.8149L15.8008 17.5089C15.8577 17.6228 15.9147 17.7651 15.9431 17.9075L22.1211 18.5623C22.2634 18.2206 22.5196 17.9644 22.8613 17.7936L21.9502 11.9858C21.751 11.9288 21.6086 11.8719 21.4663 11.8149Z" fill="white"/>
<path d="M16 0C7.17438 0 0 7.17438 0 16C0 24.8256 7.17438 32 16 32C24.8256 32 32 24.8256 32 16C32 7.17438 24.8256 0 16 0ZM23.573 20.8114C23.3167 20.8114 23.0605 20.726 22.8327 20.6121L18.6477 24.6833C18.7616 24.8826 18.8185 25.1388 18.8185 25.395C18.8185 26.2776 18.1068 26.9893 17.2242 26.9893C16.3416 26.9893 15.6299 26.2776 15.6299 25.395C15.6299 25.2242 15.6584 25.0819 15.7153 24.911L9.45196 20.4982C9.19573 20.6975 8.85409 20.8114 8.48399 20.8114C7.60142 20.8114 6.88968 20.0996 6.88968 19.2171C6.88968 18.363 7.54448 17.6797 8.37011 17.6228L9.85053 11.5303C9.39502 11.2456 9.08185 10.7331 9.08185 10.1637C9.08185 9.28114 9.7936 8.5694 10.6762 8.5694C11.3879 8.5694 12.0142 9.05338 12.2135 9.70819L20.726 9.879C20.9537 9.25267 21.5231 8.79715 22.2349 8.79715C23.1174 8.79715 23.8292 9.5089 23.8292 10.3915C23.8292 11.0178 23.4591 11.5587 22.9466 11.8149L23.8577 17.6228C24.6263 17.7367 25.1957 18.3915 25.1957 19.2171C25.1673 20.0996 24.4555 20.8114 23.573 20.8114Z" fill="white"/>
</svg>
