<svg width="32" height="32" viewBox="0 0 32 32" fill="none" xmlns="http://www.w3.org/2000/svg">
<path d="M4 8H12.618L14.618 12H24V28H4V8ZM6 10V26H22V14H13.382L11.382 10H6ZM9 18V16H11V18H13V20H11V22H9V20H7V18H9ZM17.5 18C16.6716 18 16 18.6716 16 19.5C16 20.3284 16.6716 21 17.5 21C18.3284 21 19 20.3284 19 19.5C19 18.6716 18.3284 18 17.5 18ZM14 19.5C14 17.567 15.567 16 17.5 16C19.433 16 21 17.567 21 19.5C21 21.433 19.433 23 17.5 23C15.567 23 14 21.433 14 19.5Z" fill="#939699"/>
<path fill-rule="evenodd" clip-rule="evenodd" d="M8 4H16.618L18.618 8H28V24H25V22H26V10H17.382L15.382 6H10V7H8V4Z" fill="#939699"/>
</svg>
