<svg width="32" height="32" viewBox="0 0 32 32" fill="none" xmlns="http://www.w3.org/2000/svg">
<path fill-rule="evenodd" clip-rule="evenodd" d="M13.0381 2.44572C12.5816 4.46693 10.2621 5.42768 8.51005 4.3213L8.28009 4.17609C7.23795 3.518 5.88008 3.54552 4.98618 4.3941C4.78372 4.58629 4.58629 4.78372 4.3941 4.98617C3.54553 5.88007 3.518 7.23794 4.17609 8.28009L4.3213 8.51005C5.42768 10.2621 4.46693 12.5816 2.44572 13.0381L2.18019 13.0981C0.977452 13.3698 0.0368919 14.3501 0.00533554 15.5827C0.00178572 15.7214 0 15.8605 0 16C0 16.1395 0.00178571 16.2786 0.00533552 16.4173C0.0368918 17.6499 0.977452 18.6302 2.18019 18.9019L2.44575 18.9619C4.46695 19.4185 5.42771 21.7379 4.32135 23.4899L4.17608 23.72C3.518 24.7621 3.54553 26.12 4.39413 27.0139C4.5863 27.2163 4.7837 27.4137 4.98613 27.6059C5.88006 28.4544 7.23798 28.482 8.28015 27.8239L8.51004 27.6787C10.2621 26.5723 12.5816 27.5331 13.0381 29.5543L13.098 29.8196C13.3697 31.0225 14.3502 31.9631 15.583 31.9947C15.7216 31.9982 15.8606 32 16 32C16.1394 32 16.2784 31.9982 16.417 31.9947C17.6498 31.9631 18.6303 31.0225 18.902 29.8196L18.9619 29.5543C19.4184 27.5331 21.7379 26.5723 23.49 27.6787L23.7198 27.8238C24.7619 28.482 26.1199 28.4544 27.0138 27.6058C27.2163 27.4137 27.4137 27.2163 27.6058 27.0139C28.4545 26.12 28.482 24.7621 27.8239 23.7199L27.6787 23.49C26.5723 21.7379 27.5331 19.4185 29.5543 18.9619L29.8196 18.902C31.0225 18.6303 31.9632 17.6498 31.9947 16.417C31.9983 16.2784 32 16.1394 32 16C32 15.8606 31.9983 15.7216 31.9947 15.583C31.9632 14.3502 31.0225 13.3697 29.8196 13.098L29.5543 13.0381C27.5331 12.5816 26.5724 10.2621 27.6787 8.51004L27.8239 8.28014C28.482 7.23797 28.4545 5.88006 27.6059 4.98616C27.4137 4.78371 27.2162 4.58629 27.0138 4.39411C26.1199 3.54554 24.762 3.51801 23.7198 4.17611L23.49 4.32126C21.7379 5.42766 19.4184 4.46691 18.9619 2.44569L18.9019 2.18019C18.6302 0.97745 17.6499 0.036892 16.4173 0.00533557C16.2786 0.00178573 16.1395 0 16 0C15.8605 0 15.7214 0.00178566 15.5827 0.00533538C14.3501 0.036891 13.3698 0.977452 13.0981 2.18019L13.0381 2.44572ZM16 21.3334C18.9455 21.3334 21.3332 18.9455 21.3332 16C21.3332 13.0545 18.9455 10.6667 16 10.6667C13.0545 10.6667 10.6667 13.0545 10.6667 16C10.6667 18.9455 13.0545 21.3334 16 21.3334Z" fill="white"/>
</svg>
