<svg width="32" height="32" viewBox="0 0 32 32" fill="none" xmlns="http://www.w3.org/2000/svg">
<path d="M22.6465 23.3535L21.5005 22.2075V19.9995H22.5005V21.7925L23.3535 22.6465L22.6465 23.3535ZM22.0005 17.9995C19.7915 17.9995 18.0005 19.7905 18.0005 21.9995C18.0005 24.2085 19.7915 25.9995 22.0005 25.9995C24.2085 25.9995 26.0005 24.2085 26.0005 21.9995C26.0005 19.7905 24.2085 17.9995 22.0005 17.9995Z" fill="green"/>
<path d="M11 7V11H6V25H16.8027C16.4513 24.3926 16.2034 23.7179 16.083 23H8V13H24V16.3414C24.7452 16.6048 25.4229 17.0113 26 17.5278V11H21V7H11ZM19 11H13V9H19V11Z" fill="green"/>
</svg>
